<svg xmlns="http://www.w3.org/2000/svg" viewBox="0 0 32 32" shape-rendering="crispEdges">
  <rect width="32" height="32" fill="#f6f7f9"/>
  <rect x="3" y="22" width="26" height="3" fill="#1d252d"/>
  <rect x="5" y="20" width="22" height="2" fill="#2d3641"/>
  <rect x="7" y="16" width="18" height="4" fill="#f1dfbc"/>
  <rect x="6" y="15" width="20" height="2" fill="#fff0cf"/>
  <rect x="11" y="11" width="10" height="4" fill="#f1dfbc"/>
  <rect x="21" y="12" width="8" height="2" fill="#f1dfbc"/>
  <rect x="12" y="17" width="2" height="3" fill="#181818"/>
  <rect x="14" y="19" width="1" height="1" fill="#181818"/>
  <rect x="15" y="18" width="1" height="1" fill="#181818"/>
  <rect x="16" y="19" width="1" height="1" fill="#181818"/>
  <rect x="17" y="17" width="2" height="3" fill="#181818"/>
  <rect x="19" y="19" width="1" height="1" fill="#181818"/>
  <rect x="20" y="17" width="2" height="3" fill="#181818"/>
  <rect x="7" y="22" width="4" height="4" fill="#68717c"/>
  <rect x="14" y="22" width="4" height="4" fill="#68717c"/>
  <rect x="21" y="22" width="4" height="4" fill="#68717c"/>
  <rect x="8" y="23" width="2" height="2" fill="#d8dee5"/>
  <rect x="15" y="23" width="2" height="2" fill="#d8dee5"/>
  <rect x="22" y="23" width="2" height="2" fill="#d8dee5"/>
</svg>

